<?xml version="1.0" encoding="UTF-8" ?>
<!DOCTYPE svg PUBLIC "-//W3C//DTD SVG 1.1//EN" "http://www.w3.org/Graphics/SVG/1.1/DTD/svg11.dtd">
<svg width="619pt" height="546pt" viewBox="0 0 619 546" version="1.1" xmlns="http://www.w3.org/2000/svg">
<path fill="#000000" opacity="1.00" d=" M 50.69 0.00 L 71.36 0.00 C 81.12 1.33 90.50 3.70 99.03 8.67 C 131.24 -1.60 167.79 -3.93 198.09 12.99 C 224.38 1.41 259.14 -4.15 282.82 16.17 C 305.35 37.44 304.82 72.36 293.09 99.10 C 282.28 124.95 289.44 153.64 290.82 179.55 C 266.31 187.34 241.23 198.85 224.47 219.46 C 211.43 235.61 194.28 250.53 173.05 253.38 C 152.75 258.13 130.13 248.48 119.40 230.63 C 106.64 216.64 105.11 195.97 100.08 179.08 C 70.60 161.69 54.86 128.59 48.28 96.11 C 19.21 78.96 8.69 42.62 2.35 11.18 C 18.29 6.70 34.17 2.05 50.69 0.00 M 47.66 4.49 C 34.40 7.12 21.05 9.53 8.30 14.14 C 13.54 40.82 22.53 68.96 43.63 87.39 C 48.68 91.97 46.22 82.34 45.58 79.54 C 28.36 64.31 19.48 41.61 16.24 19.45 C 37.34 11.68 61.19 7.51 83.14 14.73 C 86.10 14.21 92.27 13.15 91.74 9.31 C 77.75 3.79 62.50 2.90 47.66 4.49 M 143.15 4.35 C 116.35 5.13 91.18 15.06 68.22 28.24 C 68.90 31.93 75.62 30.84 78.41 31.54 C 111.08 14.97 151.85 2.64 186.16 21.55 C 188.84 20.96 196.41 18.67 192.87 15.18 C 177.38 7.91 160.41 3.49 143.15 4.35 M 230.68 7.53 C 194.43 12.62 169.83 42.15 139.99 60.21 C 143.83 65.63 153.01 64.54 156.89 58.88 C 184.14 39.36 211.98 11.93 248.23 15.74 C 274.00 16.15 297.04 44.10 287.45 69.39 C 284.20 77.56 275.75 88.37 265.99 81.97 C 259.09 78.35 271.11 72.62 267.57 67.46 C 266.88 59.06 255.61 53.50 249.22 60.05 C 238.03 71.17 239.16 88.59 242.04 102.92 C 249.96 128.45 267.92 150.65 285.99 168.89 C 279.07 142.09 281.97 113.14 292.60 87.65 C 299.88 67.41 299.81 41.97 284.88 25.13 C 273.09 7.98 249.80 4.90 230.68 7.53 M 51.60 15.54 C 46.26 16.72 39.03 15.68 34.90 18.97 C 41.23 21.93 48.43 22.62 54.99 25.08 C 63.28 30.22 69.44 20.96 77.00 18.83 C 72.25 12.56 58.77 15.74 51.60 15.54 M 142.52 16.38 C 131.49 17.94 119.17 18.22 109.22 23.31 C 111.06 31.51 114.29 40.42 113.24 49.36 C 121.23 51.14 128.21 56.23 136.41 56.97 C 151.83 46.73 168.50 36.22 181.74 24.23 C 170.70 16.87 155.64 15.82 142.52 16.38 M 244.08 19.46 C 232.45 21.27 218.08 20.68 208.98 29.21 C 219.26 52.18 219.57 80.14 206.18 102.03 C 224.76 119.46 246.45 137.10 258.19 160.34 C 232.40 157.64 207.25 152.21 183.34 142.42 C 171.49 164.87 146.94 179.49 122.07 181.02 C 120.18 206.06 138.12 238.46 166.76 236.48 C 180.84 239.04 203.23 223.65 194.05 209.22 C 190.55 223.10 167.63 223.06 162.92 208.94 C 159.13 196.52 169.03 186.05 177.78 178.77 C 206.79 154.68 247.12 167.20 279.69 170.49 C 264.39 151.07 246.78 132.53 238.01 108.90 C 232.86 90.27 233.16 65.52 250.12 52.87 C 264.05 45.29 282.13 67.41 267.98 77.38 C 279.01 83.55 285.65 67.83 285.75 58.73 C 285.17 37.46 265.75 18.39 244.08 19.46 M 26.12 20.37 C 22.64 20.33 19.80 22.60 22.35 25.90 C 37.95 42.13 55.99 56.38 73.21 71.06 C 76.50 74.06 84.04 76.11 84.96 70.03 C 70.90 58.93 55.75 47.85 43.22 34.80 C 60.99 39.79 78.12 46.81 95.18 53.78 C 97.95 52.57 97.50 45.41 94.07 43.83 C 71.84 34.97 48.96 27.16 26.12 20.37 M 103.32 25.39 C 100.80 26.02 95.90 27.65 99.14 30.75 C 111.83 55.45 91.43 85.54 64.56 84.85 C 64.77 87.47 64.16 90.73 66.28 92.69 C 88.18 89.79 109.47 72.27 109.86 48.80 C 108.80 41.75 109.94 28.36 103.32 25.39 M 91.20 30.41 C 85.28 31.40 80.96 36.74 90.05 38.04 C 98.13 44.41 96.73 31.73 91.20 30.41 M 202.40 31.33 C 200.78 32.10 197.80 32.51 198.02 34.84 C 210.36 52.91 206.89 77.65 197.12 96.03 C 198.90 101.90 204.81 97.39 205.10 93.08 C 215.65 75.25 215.38 45.06 202.40 31.33 M 25.39 35.71 C 29.09 48.56 34.82 63.71 45.84 71.80 C 44.91 65.99 45.84 60.12 45.41 54.31 C 38.26 48.64 32.21 41.75 25.39 35.71 M 192.37 37.27 C 179.42 47.37 165.31 56.34 152.85 66.99 C 161.13 78.22 175.93 69.03 185.81 76.67 C 184.93 84.24 183.71 92.30 193.85 92.99 C 202.10 77.96 208.34 47.76 192.37 37.27 M 63.78 46.15 C 70.84 53.42 79.77 58.89 87.67 65.30 C 91.60 69.63 98.04 61.98 93.83 58.30 C 83.99 53.86 74.02 49.59 63.78 46.15 M 113.09 53.01 C 111.29 58.31 110.32 64.30 108.99 69.88 C 116.27 69.85 115.74 66.97 113.42 62.42 C 126.59 65.48 138.63 74.08 151.00 79.84 C 153.48 78.91 158.19 78.18 156.79 74.47 C 142.64 66.62 128.49 58.10 113.09 53.01 M 50.03 59.25 C 49.80 101.84 63.98 148.74 100.85 173.20 C 105.18 175.12 102.62 167.48 102.16 165.08 C 68.66 144.59 59.30 102.10 57.29 65.48 C 55.68 62.74 52.85 60.68 50.03 59.25 M 64.02 70.25 C 59.69 74.36 67.21 83.56 72.82 78.02 C 72.26 74.18 66.69 72.97 64.02 70.25 M 120.42 70.34 C 106.97 70.14 111.38 87.96 121.21 90.31 C 119.17 84.71 120.93 77.75 127.49 76.46 C 135.92 74.12 124.29 69.14 120.42 70.34 M 105.47 75.59 C 102.50 79.67 98.21 82.49 94.99 86.04 C 106.90 96.29 121.28 104.94 134.80 112.72 C 138.66 112.40 135.66 106.95 134.90 105.21 C 123.39 98.99 112.75 91.25 102.18 83.60 C 101.37 79.52 104.97 78.72 107.75 80.72 C 106.72 79.33 107.44 73.55 105.47 75.59 M 173.25 76.43 C 161.16 79.40 144.55 85.29 142.59 99.47 C 141.26 109.90 140.25 125.85 151.01 131.55 C 155.35 127.48 164.97 123.30 161.88 115.40 C 159.13 105.21 169.63 99.08 177.31 95.38 C 181.34 89.61 186.14 73.93 173.25 76.43 M 135.73 78.51 C 123.99 79.24 124.88 99.65 136.10 99.55 C 137.11 90.02 156.23 77.84 135.73 78.51 M 89.37 89.38 C 82.58 94.15 74.17 96.10 66.63 98.31 C 70.67 119.32 80.53 141.13 97.55 155.51 C 98.82 157.74 102.49 160.53 103.96 156.96 C 105.70 142.20 106.88 127.35 107.73 112.56 C 112.96 100.50 95.84 94.80 89.37 89.38 M 183.40 93.18 C 181.50 95.36 179.42 97.83 179.10 100.81 C 196.43 110.76 211.57 124.39 224.00 139.99 C 204.63 135.20 184.61 130.88 167.62 119.67 C 167.47 122.80 162.59 126.82 166.80 129.14 C 192.99 141.86 220.87 150.05 249.72 153.94 C 231.99 130.23 209.58 106.88 183.40 93.18 M 172.48 102.39 C 167.36 103.87 163.41 117.72 172.29 116.58 C 179.42 118.10 167.40 107.82 174.95 108.83 C 185.76 112.59 177.90 99.28 172.48 102.39 M 114.01 107.19 C 113.31 132.39 107.74 157.14 107.42 182.33 C 109.48 205.56 119.25 229.25 138.82 242.83 C 155.90 251.33 178.25 251.61 194.01 240.07 C 209.88 232.18 217.94 215.11 231.45 204.39 C 244.43 192.22 263.73 182.71 279.69 177.61 C 254.43 173.18 226.15 166.75 199.97 173.90 C 186.76 178.95 170.91 186.63 168.64 202.33 C 166.55 213.61 188.21 217.37 188.96 205.53 C 194.36 197.87 203.80 208.47 202.58 215.04 C 198.78 235.01 176.00 246.86 156.92 241.70 C 131.49 236.34 117.82 209.17 115.50 185.27 C 114.72 162.33 117.93 139.51 120.69 116.79 C 122.33 111.84 119.16 107.02 114.01 107.19 M 183.51 110.29 C 178.45 111.63 177.07 121.24 183.21 121.70 C 189.40 120.90 192.72 108.47 183.51 110.29 M 126.08 114.30 C 124.03 129.33 123.68 144.56 120.69 159.48 C 120.25 161.41 120.77 164.94 123.45 164.51 C 142.00 164.55 158.91 151.51 168.01 136.07 C 162.59 128.31 157.50 133.95 151.74 137.61 C 138.36 135.68 140.17 115.95 126.08 114.30 M 193.35 118.24 C 186.41 127.78 202.60 126.51 207.83 130.07 C 204.09 125.53 199.68 118.41 193.35 118.24 M 173.50 138.28 C 162.35 155.93 142.26 171.20 120.42 169.21 C 120.61 171.16 119.73 174.33 121.06 175.52 C 143.54 174.56 165.67 162.29 176.39 142.07 C 179.57 137.54 175.53 137.81 173.50 138.28 Z" />
<path fill="#000000" opacity="1.00" d=" M 548.53 0.00 L 568.19 0.00 C 584.53 3.43 601.33 5.45 616.88 11.97 C 609.65 43.02 599.71 78.98 570.72 96.12 C 564.14 128.86 548.08 162.08 518.34 179.51 C 514.40 196.55 511.91 216.70 499.61 230.63 C 489.12 248.08 467.24 257.91 447.26 253.60 C 425.76 251.10 408.19 236.32 394.99 220.01 C 381.37 203.08 361.83 192.36 342.20 184.10 C 336.36 181.99 323.92 182.64 327.64 172.79 C 335.22 144.06 332.84 113.06 321.36 85.67 C 309.98 54.58 324.13 11.24 359.56 4.49 C 381.00 -2.07 402.48 7.60 422.42 12.38 C 452.49 -4.66 488.92 -0.87 520.86 8.76 C 529.43 3.95 538.67 0.85 548.53 0.00 M 473.23 4.37 C 456.91 4.24 440.85 8.04 426.13 15.17 C 422.58 18.67 430.13 20.91 432.81 21.57 C 467.26 2.33 508.54 15.42 541.33 31.92 C 543.96 32.08 556.88 29.64 548.92 27.09 C 525.99 13.91 499.76 5.46 473.23 4.37 M 545.18 4.60 C 539.56 7.82 531.24 5.97 527.14 10.77 C 533.67 18.22 544.14 12.54 552.31 11.14 C 569.36 10.35 586.87 13.48 602.76 19.45 C 599.48 41.60 590.61 64.29 573.42 79.54 C 572.78 82.34 570.32 91.97 575.37 87.39 C 596.71 69.09 605.31 40.82 610.77 14.19 C 589.24 8.28 568.19 1.94 545.18 4.60 M 365.63 7.50 C 339.02 9.98 319.51 36.92 321.91 62.87 C 321.17 83.13 333.96 100.46 335.62 120.38 C 338.94 135.98 334.70 155.10 333.79 168.86 C 356.05 142.87 386.54 110.81 377.04 73.03 C 376.71 61.36 360.17 50.45 352.93 63.02 C 346.77 69.85 358.07 76.57 353.08 82.11 C 334.46 88.88 325.77 61.70 330.46 47.60 C 340.36 12.42 387.34 7.63 414.24 25.81 C 433.73 36.35 450.94 50.51 468.59 63.77 C 470.82 63.96 479.32 63.74 477.58 59.49 C 443.13 37.24 411.21 -0.13 365.63 7.50 M 550.90 15.74 C 547.88 16.53 544.80 17.04 541.73 17.55 C 553.23 30.90 570.86 25.19 584.45 18.51 C 573.60 15.43 562.22 15.11 550.90 15.74 M 465.62 16.54 C 455.72 17.15 445.65 19.35 436.95 24.04 C 450.57 36.66 467.18 46.42 482.59 56.97 C 490.80 56.35 497.63 50.88 505.75 49.59 C 505.22 40.51 507.79 31.81 509.74 23.25 C 496.63 17.63 480.09 16.22 465.62 16.54 M 374.21 19.56 C 348.92 18.54 325.62 46.39 335.94 70.75 C 338.58 76.29 344.60 80.61 350.97 78.40 C 341.01 70.61 347.40 54.80 358.42 52.08 C 372.62 48.53 380.16 64.12 382.54 75.46 C 391.33 114.00 359.98 143.43 339.28 171.22 C 371.77 166.17 409.01 156.02 438.41 176.55 C 447.72 183.98 459.01 193.96 456.57 207.32 C 453.83 219.56 435.31 224.48 427.66 214.26 C 427.05 212.29 425.37 206.51 423.59 210.70 C 419.02 220.68 428.98 228.87 436.30 233.76 C 450.34 238.90 467.56 236.91 479.08 227.18 C 490.17 215.28 497.41 199.11 497.58 182.70 C 497.52 179.41 493.29 180.76 491.15 180.48 C 468.22 177.22 446.57 163.13 435.66 142.42 C 411.85 152.36 386.45 157.62 360.81 160.34 C 372.82 137.45 393.17 119.44 412.89 102.76 C 399.47 80.59 399.79 52.48 409.94 29.26 C 400.50 21.38 386.13 20.49 374.21 19.56 M 591.32 20.42 C 569.58 29.09 546.52 34.28 525.48 44.49 C 520.09 45.22 521.08 57.26 527.01 53.05 C 542.94 46.00 559.30 39.98 575.96 34.87 C 563.06 47.77 548.12 58.96 534.12 70.02 C 535.08 76.89 543.24 73.24 546.85 70.45 C 559.67 58.35 574.37 48.48 586.43 35.52 C 592.10 32.00 605.01 20.10 591.32 20.42 M 514.27 25.19 C 497.79 53.82 521.43 90.43 552.59 92.62 C 555.12 91.12 554.33 87.64 554.67 85.05 C 541.67 84.26 529.46 77.73 521.33 67.65 C 515.80 55.32 516.65 40.04 521.87 28.02 C 520.21 26.42 516.62 25.79 514.27 25.19 M 414.35 31.18 C 403.75 52.16 403.40 78.62 416.76 98.38 C 418.87 100.38 423.32 97.18 421.35 94.67 C 411.20 76.70 409.57 52.53 420.98 34.84 C 420.74 32.07 416.75 31.04 414.35 31.18 M 527.13 31.34 C 523.27 33.23 520.85 43.23 527.83 38.92 C 538.20 38.52 534.64 29.90 527.13 31.34 M 592.57 36.57 C 586.24 42.48 580.36 48.89 573.59 54.31 C 573.15 60.12 574.09 65.99 573.15 71.80 C 584.00 64.68 588.17 50.37 593.27 38.82 C 593.71 37.85 594.13 34.43 592.57 36.57 M 424.39 37.15 C 412.33 53.00 416.28 76.61 425.15 93.08 C 435.21 92.07 433.55 84.62 433.42 77.02 C 442.01 68.49 458.76 78.24 465.62 67.28 C 453.14 56.49 438.65 44.72 424.39 37.15 M 552.49 47.41 C 543.07 50.41 534.68 55.03 525.39 58.41 C 520.65 62.98 528.58 69.95 532.50 64.52 C 538.34 59.02 552.05 51.36 552.49 47.41 M 504.33 53.32 C 490.46 59.82 476.58 66.67 463.13 74.21 C 459.68 77.57 466.10 79.82 468.70 79.60 C 480.19 73.23 491.95 67.21 504.10 62.20 C 509.95 63.18 498.92 68.06 505.19 68.91 C 514.79 74.42 506.29 54.11 504.33 53.32 M 568.34 59.56 C 564.99 61.59 560.60 64.36 561.49 68.92 C 559.27 104.89 548.76 145.47 516.51 165.72 C 512.00 177.72 522.50 171.93 526.57 166.53 C 557.64 141.74 569.86 96.33 568.34 59.56 M 495.53 70.71 C 492.68 72.33 484.24 73.65 490.79 76.15 C 497.58 77.39 500.09 84.32 497.79 90.32 C 510.11 87.12 510.36 67.48 495.53 70.71 M 554.45 70.60 C 551.97 73.19 546.68 74.33 546.17 77.94 C 551.43 84.19 560.18 72.70 554.45 70.60 M 512.53 74.70 C 508.26 83.58 516.85 76.43 516.82 83.60 C 506.21 91.17 495.70 99.13 484.04 105.10 C 480.64 107.02 481.77 115.32 485.99 111.93 C 498.98 103.84 512.61 96.03 524.01 86.04 C 520.29 82.38 516.11 78.79 512.53 74.70 M 444.40 76.59 C 432.99 75.69 438.09 90.40 442.24 95.88 C 450.36 98.90 460.06 106.19 456.99 116.06 C 454.29 123.84 463.70 126.52 467.27 131.62 C 475.89 130.05 475.95 118.88 477.13 112.17 C 481.84 92.08 462.03 78.22 444.40 76.59 M 478.59 78.55 C 464.80 82.76 483.64 90.80 482.91 99.55 C 496.96 99.08 492.55 74.07 478.59 78.55 M 527.65 89.49 C 522.67 97.16 507.11 99.43 510.82 110.85 C 512.32 126.13 513.43 141.65 515.04 156.99 C 516.54 160.52 520.17 157.72 521.45 155.51 C 537.80 141.72 547.13 121.70 551.99 101.23 C 554.77 97.96 549.14 95.37 546.46 96.46 C 539.56 96.10 533.77 89.82 527.65 89.49 M 433.40 93.27 C 408.37 109.07 386.79 130.41 369.30 153.96 C 397.96 149.41 426.06 142.01 452.20 129.14 C 456.48 126.80 451.43 122.81 451.42 119.65 C 434.30 130.55 414.48 135.43 395.06 140.02 C 407.22 124.26 422.69 110.92 439.85 100.90 C 438.72 97.99 437.43 92.30 433.40 93.27 M 442.80 102.42 C 439.98 104.59 435.25 109.77 442.04 108.98 C 453.47 105.73 440.14 116.69 445.92 116.70 C 456.99 118.74 450.89 99.04 442.80 102.42 M 503.41 107.36 C 494.40 109.25 499.61 120.93 499.43 127.03 C 503.70 161.03 511.14 202.32 484.11 229.13 C 467.07 250.17 427.21 246.58 417.88 219.82 C 412.48 212.49 422.77 196.49 430.42 205.90 C 430.97 217.52 452.63 213.31 450.36 202.33 C 446.13 182.95 424.44 173.64 406.42 171.51 C 383.99 168.42 360.55 174.09 339.31 177.61 C 369.67 185.60 394.85 209.04 415.41 233.59 C 433.31 250.15 462.42 254.66 483.03 240.80 C 505.84 222.67 514.27 191.70 510.64 163.66 C 507.88 145.42 506.81 123.02 503.41 107.36 M 432.60 110.44 C 426.01 112.84 431.45 119.56 435.09 121.80 C 443.24 122.11 439.32 107.63 432.60 110.44 M 492.25 114.48 C 478.63 116.54 480.45 135.80 467.25 137.61 C 461.56 134.29 456.31 128.06 451.09 136.06 C 460.04 152.02 477.86 165.23 496.83 164.43 C 500.73 160.22 496.02 153.93 496.77 148.91 C 494.28 137.83 495.45 124.10 492.25 114.48 M 423.40 118.23 C 418.86 121.16 415.12 125.51 411.48 129.47 C 415.05 129.30 436.15 123.76 423.40 118.23 M 442.39 138.15 C 448.76 160.70 473.97 173.64 496.38 175.62 C 500.01 176.29 498.21 171.41 498.58 169.21 C 480.61 171.28 464.17 160.14 452.28 147.68 C 448.45 145.01 448.30 137.04 442.39 138.15 Z" />
<path fill="#000000" opacity="1.00" d=" M 309.18 207.60 C 329.60 225.79 353.43 243.66 381.92 247.29 C 412.21 251.25 445.16 272.06 446.68 305.43 C 448.54 333.90 426.80 357.05 406.12 373.24 C 406.52 407.65 384.41 439.04 360.95 460.29 C 359.26 492.36 336.38 519.36 313.07 540.14 C 308.79 544.78 304.35 538.56 301.17 535.83 C 280.43 515.83 259.03 490.95 258.76 460.57 C 234.73 439.92 212.67 408.25 213.14 373.94 C 191.75 356.68 168.95 332.06 172.36 301.95 C 176.68 270.18 208.20 251.00 237.74 247.22 C 265.65 243.29 289.53 226.52 309.18 207.60 M 303.46 220.45 C 284.81 237.27 261.85 249.11 236.94 253.23 C 212.97 255.33 187.86 269.35 180.33 293.44 C 170.05 319.30 188.66 345.91 207.96 362.02 C 229.77 378.30 256.94 384.41 280.55 397.60 C 285.59 399.99 282.37 392.66 281.67 390.19 C 248.48 373.46 205.05 364.39 189.48 326.55 C 174.13 300.28 197.89 260.19 229.21 266.87 C 237.53 267.21 245.20 281.48 234.90 284.49 C 224.90 279.02 216.79 297.00 225.58 302.56 C 233.11 307.90 242.06 304.71 249.94 302.31 C 281.53 287.78 293.95 248.50 303.46 220.45 M 314.91 220.04 C 327.08 252.44 339.47 294.71 377.35 304.72 C 387.68 309.08 404.31 299.19 394.49 287.42 C 391.34 278.96 377.56 289.41 379.30 277.25 C 382.63 262.66 402.38 264.84 412.74 270.13 C 437.37 283.60 440.08 318.45 422.78 338.76 C 403.03 367.60 366.78 374.99 337.33 390.19 C 336.62 392.66 333.40 399.99 338.45 397.60 C 362.09 384.44 389.17 378.23 411.09 362.07 C 430.50 345.96 449.09 319.38 438.67 293.44 C 431.83 271.29 409.86 257.57 387.96 253.98 C 360.58 251.02 335.33 238.16 314.91 220.04 M 309.12 223.30 C 303.18 241.99 295.71 260.18 286.38 277.44 C 273.76 298.90 247.93 316.75 222.45 309.15 C 207.56 300.77 215.99 273.39 233.80 278.88 C 233.58 273.18 226.97 271.29 222.22 270.97 C 204.64 271.65 193.66 288.14 190.60 303.91 C 189.05 325.02 204.00 345.20 221.85 354.82 C 236.44 333.82 260.92 319.68 286.84 320.44 C 289.07 295.23 298.13 267.98 309.85 245.44 C 320.30 269.33 330.45 294.72 332.06 320.43 C 357.98 319.72 382.53 333.84 397.22 354.79 C 415.21 344.97 430.15 324.64 428.45 303.27 C 424.55 290.48 418.21 275.70 403.67 272.40 C 397.36 269.61 386.41 270.82 385.20 278.88 C 399.28 274.07 410.34 293.55 400.98 304.00 C 398.24 311.62 389.10 309.90 382.88 311.53 C 355.45 308.55 333.52 286.44 324.70 260.98 C 317.58 249.41 315.15 234.36 309.12 223.30 M 309.17 258.43 C 298.52 285.83 290.77 314.58 289.40 344.20 C 292.12 345.38 295.21 345.60 298.16 345.71 C 297.88 327.46 301.79 309.53 307.05 292.14 C 307.53 289.91 310.17 287.53 311.27 290.79 C 317.44 308.40 321.05 326.99 320.85 345.71 C 323.79 345.61 326.87 345.38 329.60 344.20 C 327.97 314.68 320.70 284.77 309.17 258.43 M 309.09 306.36 C 309.04 312.05 304.62 318.73 307.42 323.83 C 317.19 326.20 310.30 309.97 309.09 306.36 M 282.47 326.61 C 259.74 326.84 238.96 339.32 226.41 358.13 C 226.81 360.04 229.48 360.85 231.04 361.92 C 240.83 342.26 264.40 331.61 286.31 331.31 C 287.62 328.67 284.69 326.03 282.47 326.61 M 335.92 326.39 C 333.92 327.03 331.31 328.08 332.69 331.31 C 354.58 331.64 378.16 342.23 387.98 361.98 C 389.64 361.05 391.18 359.90 392.62 358.66 C 380.57 339.10 358.75 326.75 335.92 326.39 M 307.10 329.60 C 299.41 331.12 308.53 342.83 312.85 336.72 C 318.65 332.36 311.81 327.70 307.10 329.60 M 275.75 337.52 C 259.28 341.56 243.75 348.05 236.08 363.91 C 250.46 371.29 266.11 377.06 280.87 384.00 C 284.49 382.30 281.95 375.72 282.17 372.20 C 273.81 365.23 269.08 347.39 284.05 346.35 C 286.07 340.37 284.70 332.09 275.75 337.52 M 334.78 336.34 C 332.82 343.60 335.11 348.56 343.12 349.88 C 351.20 361.39 330.09 372.09 337.43 383.89 C 352.53 377.80 368.29 371.12 382.92 363.91 C 373.86 345.78 354.23 338.57 334.78 336.34 M 304.08 341.19 C 294.72 354.17 324.27 354.17 314.92 341.19 C 309.82 348.09 309.18 348.09 304.08 341.19 M 289.65 350.58 C 273.50 350.46 280.36 367.83 291.62 371.42 C 306.75 385.84 336.32 374.42 339.69 354.73 C 334.07 351.02 323.20 347.06 317.49 354.61 C 307.94 361.45 298.66 349.41 289.65 350.58 M 219.19 375.27 C 218.89 419.72 255.26 457.25 292.69 478.18 C 291.09 474.27 291.85 468.72 287.31 466.71 C 256.42 446.45 226.76 416.35 225.30 377.42 C 222.45 378.85 221.89 374.06 219.19 375.27 M 398.33 375.09 C 396.71 377.98 392.71 376.42 393.14 380.32 C 391.36 418.05 361.50 446.87 331.69 466.71 C 327.15 468.72 327.91 474.27 326.31 478.18 C 363.87 457.09 398.10 421.37 400.73 376.35 C 400.38 375.31 399.58 374.89 398.33 375.09 M 287.66 377.34 C 288.00 393.68 288.70 410.02 290.49 426.24 C 294.81 422.28 311.14 424.40 302.52 417.44 C 299.64 417.60 301.40 423.61 296.97 421.66 C 295.08 407.93 294.33 393.98 293.54 380.14 C 291.92 378.74 290.05 376.24 287.66 377.34 M 329.54 376.99 C 319.94 387.79 326.88 408.66 321.42 421.71 C 317.29 423.38 319.48 417.22 316.47 417.45 C 307.95 424.31 324.14 422.57 328.52 426.26 C 329.64 410.06 333.09 390.87 329.54 376.99 M 231.44 381.91 C 232.66 406.44 248.54 428.56 266.06 443.94 C 272.05 438.25 278.31 431.25 286.69 428.02 C 282.07 419.70 288.29 405.24 276.86 402.21 C 262.07 394.92 246.98 387.31 231.44 381.91 M 383.31 382.82 C 370.01 389.69 355.85 394.60 342.86 401.92 C 330.67 404.56 336.87 419.44 332.31 427.96 C 340.59 431.37 346.99 438.15 352.94 443.94 C 370.41 428.52 386.31 406.42 387.56 381.91 C 386.10 381.97 384.63 382.20 383.31 382.82 M 299.61 383.13 C 293.54 401.57 325.29 401.54 319.49 383.23 C 312.88 384.43 306.19 384.69 299.61 383.13 M 300.05 401.30 C 297.65 409.22 304.25 412.62 309.15 416.92 C 314.56 414.04 322.87 406.96 317.46 401.40 C 311.87 408.43 306.03 404.27 300.05 401.30 M 305.11 426.78 C 291.32 429.32 277.88 435.82 271.01 447.85 C 272.94 450.31 278.02 454.33 278.74 448.84 C 288.61 438.26 304.34 428.29 319.23 434.59 C 327.64 436.36 333.50 443.05 339.94 448.17 C 340.42 454.32 346.88 450.67 348.02 447.11 C 338.59 433.88 321.86 425.40 305.11 426.78 M 307.90 437.51 C 301.46 446.54 310.39 461.35 309.17 472.38 C 312.02 466.74 311.00 456.35 312.97 448.70 C 314.11 444.29 315.10 435.61 307.90 437.51 M 299.38 441.57 C 292.13 441.22 292.39 449.50 293.33 454.70 C 297.40 475.92 301.08 497.58 306.46 518.41 C 311.31 525.28 315.68 513.90 314.77 509.30 C 318.28 493.68 321.56 478.00 324.13 462.18 C 325.91 455.18 329.64 441.50 318.87 441.37 C 317.48 459.53 313.94 478.81 309.82 495.68 C 303.96 480.37 302.67 457.89 299.38 441.57 M 287.23 448.35 C 283.56 450.13 279.58 456.61 285.15 458.86 C 291.55 463.48 289.08 449.95 287.23 448.35 M 331.04 448.19 C 330.53 451.65 327.51 463.14 333.86 458.87 C 339.62 456.53 335.16 449.30 331.04 448.19 M 264.18 466.29 C 267.27 495.26 289.38 517.93 309.20 536.47 C 329.58 518.80 351.57 495.19 354.82 466.29 C 350.94 468.05 346.05 470.77 345.81 475.59 C 341.92 495.48 327.28 510.62 313.61 524.62 C 311.94 526.14 309.53 529.34 307.46 526.53 C 292.91 512.14 277.39 496.36 273.19 475.58 C 272.94 470.77 268.06 468.05 264.18 466.29 M 277.91 475.06 C 280.98 488.41 289.70 499.77 298.09 509.96 C 300.31 501.64 293.97 492.97 293.25 484.48 C 288.05 481.63 283.16 477.98 277.91 475.06 M 340.40 475.39 C 335.50 478.41 330.67 481.67 325.75 484.48 C 325.03 492.97 318.69 501.64 320.91 509.96 C 328.82 500.09 339.65 486.51 340.40 475.39 Z" />
</svg>
